<svg width="104" height="35" viewBox="0 0 104 35" fill="none" xmlns="http://www.w3.org/2000/svg">
<path d="M0 0L104 5V27L0 35V0Z" fill="#5D8BF4"/>
<path d="M12.14 14.86C12.14 14.3 11.86 14.02 11.3 14.02H8.92C8.36 14.02 8.08 14.3 8.08 14.86V19.34C8.08 19.9 8.36 20.18 8.92 20.18H11.3C11.86 20.18 12.14 19.9 12.14 19.34V14.86ZM14.66 19.34C14.66 20.32 14.436 21.034 13.988 21.482C13.5493 21.9207 12.84 22.14 11.86 22.14H8.36C7.38 22.14 6.666 21.9207 6.218 21.482C5.77933 21.034 5.56 20.32 5.56 19.34V14.86C5.56 13.88 5.77933 13.1707 6.218 12.732C6.666 12.284 7.38 12.06 8.36 12.06H11.86C12.84 12.06 13.5493 12.284 13.988 12.732C14.436 13.1707 14.66 13.88 14.66 14.86V19.34ZM17.0666 12.2H22.6666C23.5812 12.2 24.2532 12.41 24.6826 12.83C25.1119 13.2407 25.3266 13.8707 25.3266 14.72C25.3266 15.28 25.2052 15.7373 24.9626 16.092C24.7199 16.4373 24.4212 16.68 24.0666 16.82C24.8226 17.0253 25.3359 17.5293 25.6066 18.332C25.6999 18.6213 25.7466 18.9573 25.7466 19.34C25.7466 20.2547 25.5319 20.9267 25.1026 21.356C24.6732 21.7853 24.0012 22 23.0866 22H17.0666V12.2ZM23.2266 18.92C23.2266 18.36 22.9466 18.08 22.3866 18.08H19.5866V20.04H22.3866C22.9466 20.04 23.2266 19.76 23.2266 19.2V18.92ZM22.8066 15C22.8066 14.44 22.5266 14.16 21.9666 14.16H19.5866V16.12H21.9666C22.5266 16.12 22.8066 15.84 22.8066 15.28V15ZM34.306 12.2H36.826V19.34C36.826 20.32 36.602 21.034 36.154 21.482C35.7153 21.9207 35.006 22.14 34.026 22.14H30.806C29.826 22.14 29.112 21.9207 28.664 21.482C28.2253 21.034 28.006 20.32 28.006 19.34V12.2H30.526V19.34C30.526 19.9 30.806 20.18 31.366 20.18H33.466C34.026 20.18 34.306 19.9 34.306 19.34V12.2ZM39.212 19.97C41.7693 20.11 43.5007 20.18 44.406 20.18C44.6207 20.18 44.7887 20.1193 44.91 19.998C45.0407 19.8673 45.106 19.6947 45.106 19.48V18.22H41.886C40.906 18.22 40.192 18.0007 39.744 17.562C39.3053 17.114 39.086 16.4 39.086 15.42V15C39.086 14.02 39.3053 13.3107 39.744 12.872C40.192 12.424 40.906 12.2 41.886 12.2H46.8V14.16H42.446C41.886 14.16 41.606 14.44 41.606 15V15.28C41.606 15.84 41.886 16.12 42.446 16.12H44.966C45.8807 16.12 46.5527 16.3347 46.982 16.764C47.4113 17.1933 47.626 17.8653 47.626 18.78V19.48C47.626 20.3947 47.4113 21.0667 46.982 21.496C46.5527 21.9253 45.8807 22.14 44.966 22.14C44.49 22.14 43.986 22.1307 43.454 22.112L42.166 22.056C41.214 22.0093 40.2293 21.944 39.212 21.86V19.97ZM54.5049 22H49.4649V20.04H50.7249V14.16H49.4649V12.2H54.5049V14.16H53.2449V20.04H54.5049V22ZM65.3038 22H62.6438L59.2838 16.12V22H56.7638V12.2H59.4238L62.7838 18.08V12.2H65.3038V22ZM75.7604 22H67.9904V12.2H75.7604V14.16H70.5104V16.05H74.6404V18.01H70.5104V20.04H75.7604V22ZM77.5831 19.97C80.1404 20.11 81.8718 20.18 82.7771 20.18C82.9918 20.18 83.1598 20.1193 83.2811 19.998C83.4118 19.8673 83.4771 19.6947 83.4771 19.48V18.22H80.2571C79.2771 18.22 78.5631 18.0007 78.1151 17.562C77.6764 17.114 77.4571 16.4 77.4571 15.42V15C77.4571 14.02 77.6764 13.3107 78.1151 12.872C78.5631 12.424 79.2771 12.2 80.2571 12.2H85.1711V14.16H80.8171C80.2571 14.16 79.9771 14.44 79.9771 15V15.28C79.9771 15.84 80.2571 16.12 80.8171 16.12H83.3371C84.2518 16.12 84.9238 16.3347 85.3531 16.764C85.7824 17.1933 85.9971 17.8653 85.9971 18.78V19.48C85.9971 20.3947 85.7824 21.0667 85.3531 21.496C84.9238 21.9253 84.2518 22.14 83.3371 22.14C82.8611 22.14 82.3571 22.1307 81.8251 22.112L80.5371 22.056C79.5851 22.0093 78.6004 21.944 77.5831 21.86V19.97ZM87.962 19.97C90.5193 20.11 92.2507 20.18 93.156 20.18C93.3707 20.18 93.5387 20.1193 93.66 19.998C93.7907 19.8673 93.856 19.6947 93.856 19.48V18.22H90.636C89.656 18.22 88.942 18.0007 88.494 17.562C88.0553 17.114 87.836 16.4 87.836 15.42V15C87.836 14.02 88.0553 13.3107 88.494 12.872C88.942 12.424 89.656 12.2 90.636 12.2H95.55V14.16H91.196C90.636 14.16 90.356 14.44 90.356 15V15.28C90.356 15.84 90.636 16.12 91.196 16.12H93.716C94.6307 16.12 95.3027 16.3347 95.732 16.764C96.1613 17.1933 96.376 17.8653 96.376 18.78V19.48C96.376 20.3947 96.1613 21.0667 95.732 21.496C95.3027 21.9253 94.6307 22.14 93.716 22.14C93.24 22.14 92.736 22.1307 92.204 22.112L90.916 22.056C89.964 22.0093 88.9793 21.944 87.962 21.86V19.97Z" fill="white"/>
</svg>
